<svg xmlns="http://www.w3.org/2000/svg" xmlns:xlink="http://www.w3.org/1999/xlink" width="500" zoomAndPan="magnify" viewBox="0 0 375 374.999991" height="500" preserveAspectRatio="xMidYMid meet" version="1.0"><defs><g/></defs><g fill="#57351a" fill-opacity="1"><g transform="translate(38.727719, 227.929922)"><g><path d="M 3.464844 0 L 12.707031 0 C 24.835938 0 34.769531 2.308594 44.933594 2.308594 C 80.507812 2.308594 97.371094 -26.105469 97.371094 -57.753906 C 97.371094 -89.402344 80.507812 -117.816406 44.933594 -117.816406 C 34.769531 -117.816406 24.835938 -115.507812 12.707031 -115.507812 L 3.464844 -115.507812 L 3.464844 -114.351562 C 13.398438 -114.351562 14.09375 -106.152344 14.09375 -83.394531 L 14.09375 -32.109375 C 14.09375 -9.355469 13.398438 -1.15625 3.464844 -1.15625 Z M 23.910156 -112.964844 C 30.609375 -115.046875 37.308594 -116.199219 44.816406 -116.199219 C 73.347656 -116.199219 87.4375 -89.289062 87.4375 -57.753906 C 87.4375 -26.21875 73.347656 0.691406 44.816406 0.691406 C 37.308594 0.691406 30.609375 -0.460938 23.910156 -2.542969 Z M 23.910156 -112.964844 "/></g></g></g><g fill="#57351a" fill-opacity="1"><g transform="translate(142.562188, 227.929922)"><g/></g></g><g fill="#57351a" fill-opacity="1"><g transform="translate(182.525138, 227.929922)"><g><path d="M 3.464844 -115.507812 L 3.464844 -114.351562 C 13.398438 -114.351562 14.09375 -106.152344 14.09375 -83.394531 L 14.09375 -32.109375 C 14.09375 -9.355469 13.398438 -1.15625 3.464844 -1.15625 L 3.464844 0 L 34.652344 0 L 34.652344 -1.15625 C 24.71875 -1.15625 15.246094 -9.472656 15.246094 -43.085938 L 15.246094 -57.753906 L 15.363281 -107.304688 C 32.917969 -69.652344 43.316406 -47.242188 61.449219 -8.433594 L 62.488281 -8.433594 C 76.695312 -46.550781 88.363281 -78.3125 100.839844 -111.695312 L 100.839844 -32.109375 C 100.839844 -9.355469 100.144531 -1.15625 90.210938 -1.15625 L 90.210938 0 L 121.398438 0 L 121.398438 -1.15625 C 111.464844 -1.15625 110.773438 -9.355469 110.773438 -32.109375 L 110.773438 -83.394531 C 110.773438 -106.152344 111.464844 -114.351562 121.398438 -114.351562 L 121.398438 -115.507812 L 101.070312 -115.507812 L 66.417969 -22.410156 L 22.0625 -115.507812 Z M 3.464844 -115.507812 "/></g></g></g><g fill="#57351a" fill-opacity="1"><g transform="translate(306.918619, 227.929922)"><g><path d="M 6.929688 -7.738281 C 6.929688 -3.464844 10.394531 0 14.667969 0 C 18.941406 0 22.410156 -3.464844 22.410156 -7.738281 C 22.410156 -12.011719 18.941406 -15.476562 14.667969 -15.476562 C 10.394531 -15.476562 6.929688 -12.011719 6.929688 -7.738281 Z M 6.929688 -7.738281 "/></g></g></g><g fill="#57351a" fill-opacity="1"><g transform="translate(66.855448, 260.90818)"><g><path d="M 27.40625 -12.933594 C 27.40625 -15.1875 26.503906 -16.804688 24.78125 -18.207031 C 25.417969 -18.710938 26.082031 -19.164062 26.742188 -19.640625 C 26.796875 -19.667969 26.824219 -19.746094 26.847656 -19.800781 C 26.847656 -19.851562 26.796875 -19.878906 26.742188 -19.878906 C 26.320312 -19.878906 24.703125 -18.820312 24.332031 -18.578125 C 22.371094 -19.507812 20.832031 -19.878906 18.660156 -19.878906 C 18.207031 -19.878906 17.785156 -19.851562 17.335938 -19.824219 C 16.007812 -20.886719 14.789062 -21.285156 13.09375 -21.285156 C 9.9375 -21.285156 6.863281 -20.089844 4.398438 -18.128906 C 2.28125 -16.433594 0.160156 -13.332031 0.160156 -10.523438 C 0.160156 -9.9375 0.238281 -9.328125 0.476562 -8.800781 C 0.582031 -8.585938 0.953125 -7.820312 1.21875 -7.820312 C 1.273438 -7.820312 1.324219 -7.871094 1.324219 -7.925781 C 1.324219 -8.03125 0.820312 -8.824219 0.742188 -9.011719 C 0.554688 -9.515625 0.476562 -10.046875 0.476562 -10.574219 C 0.476562 -13.09375 2.703125 -16.195312 4.558594 -17.730469 C 6.839844 -19.613281 9.964844 -20.964844 12.933594 -20.964844 C 14.5 -20.964844 15.480469 -20.648438 16.75 -19.773438 C 12.90625 -19.214844 10.839844 -18.339844 7.765625 -15.902344 C 5.671875 -14.234375 3.339844 -11.078125 3.339844 -8.269531 C 3.339844 -6.175781 4.691406 -5.035156 6.730469 -5.035156 C 9.4375 -5.035156 12.800781 -7.367188 14.605469 -9.222656 C 16.511719 -11.183594 18.316406 -14.128906 18.316406 -16.9375 C 18.316406 -17.917969 18.023438 -18.605469 17.574219 -19.453125 C 18.023438 -19.507812 18.449219 -19.535156 18.898438 -19.535156 C 20.621094 -19.535156 22.398438 -19.109375 23.882812 -18.234375 C 22.875 -17.441406 21.867188 -16.644531 20.964844 -15.742188 C 19.003906 -13.703125 17.441406 -11.050781 15.929688 -8.695312 C 14.207031 -6.015625 12.40625 -3.023438 9.566406 -1.40625 C 8.402344 -1.722656 7.261719 -1.988281 6.042969 -1.988281 C 4.53125 -1.988281 2.808594 -1.722656 2.808594 -0.875 C 2.808594 -0.105469 4.082031 0 5.222656 0 C 7.101562 0 8.242188 -0.292969 10.019531 -0.902344 C 11.421875 -0.449219 12.800781 0 14.285156 0 C 17.917969 0 21.019531 -2.066406 23.535156 -4.53125 C 25.789062 -6.757812 27.40625 -9.726562 27.40625 -12.933594 Z M 26.054688 -13.886719 C 26.054688 -8.746094 19.320312 -0.449219 13.96875 -0.449219 C 12.777344 -0.449219 11.609375 -0.796875 10.496094 -1.140625 C 15.1875 -3.605469 17.253906 -7.128906 19.800781 -11.609375 C 20.621094 -13.039062 21.390625 -14.578125 22.449219 -15.851562 C 23.03125 -16.566406 23.722656 -17.203125 24.382812 -17.835938 C 25.628906 -16.777344 26.054688 -15.503906 26.054688 -13.886719 Z M 17.945312 -16.855469 C 17.945312 -14.179688 16.167969 -11.292969 14.339844 -9.4375 C 12.511719 -7.582031 9.460938 -5.433594 6.730469 -5.433594 C 5.0625 -5.433594 3.683594 -6.386719 3.683594 -8.164062 C 3.683594 -11.027344 5.964844 -13.863281 8.03125 -15.613281 C 10.628906 -17.785156 13.703125 -19.082031 17.070312 -19.429688 C 17.707031 -18.632812 17.945312 -17.863281 17.945312 -16.855469 Z M 9.011719 -1.140625 C 7.632812 -0.609375 6.707031 -0.34375 5.195312 -0.34375 C 4.109375 -0.34375 3.207031 -0.503906 3.207031 -0.875 C 3.207031 -1.296875 4.320312 -1.644531 6.203125 -1.644531 C 7.15625 -1.644531 8.109375 -1.378906 9.011719 -1.140625 Z M 9.011719 -1.140625 "/></g></g></g><g fill="#57351a" fill-opacity="1"><g transform="translate(100.933427, 260.90818)"><g><path d="M 4.53125 -9.011719 C 4.53125 -9.304688 4.292969 -9.542969 4.003906 -9.542969 C 3.550781 -9.542969 3.128906 -9.144531 3.128906 -8.695312 C 3.128906 -8.402344 3.367188 -8.164062 3.65625 -8.164062 C 4.109375 -8.164062 4.53125 -8.5625 4.53125 -9.011719 Z M 0.6875 -5.75 C -0.0273438 -4.851562 -2.304688 -2.28125 -2.304688 -1.085938 C -2.304688 -0.449219 -1.75 0 -1.140625 0 C 0.292969 0 3.605469 -3.179688 4.558594 -4.082031 C 4.691406 -4.214844 5.089844 -4.503906 5.089844 -4.691406 C 5.089844 -4.746094 5.0625 -4.824219 4.984375 -4.824219 C 4.875 -4.824219 0.265625 -0.425781 -1.007812 -0.425781 C -1.246094 -0.425781 -1.378906 -0.554688 -1.378906 -0.796875 C -1.378906 -1.429688 0.238281 -3.367188 0.636719 -3.84375 L 3.179688 -6.996094 L 1.5625 -6.839844 Z M 0.6875 -5.75 "/></g></g></g><g fill="#57351a" fill-opacity="1"><g transform="translate(112.436724, 260.90818)"><g><path d="M 0.292969 0.34375 C -1.40625 1.296875 -2.757812 2.148438 -4.109375 3.550781 C -4.957031 4.425781 -6.46875 6.042969 -6.46875 7.34375 C -6.46875 7.953125 -6.042969 8.164062 -5.488281 8.164062 C -3.023438 8.164062 0.796875 2.015625 1.933594 0.292969 C 4.136719 -0.636719 6.148438 -1.667969 8.003906 -3.207031 C 8.214844 -3.394531 9.542969 -4.558594 9.542969 -4.71875 C 9.542969 -4.796875 9.488281 -4.851562 9.410156 -4.851562 C 9.304688 -4.851562 9.25 -4.769531 9.195312 -4.691406 C 8.640625 -4.027344 6.996094 -2.863281 6.253906 -2.386719 C 4.984375 -1.5625 3.683594 -0.925781 2.304688 -0.316406 L 7.605469 -7.023438 L 5.988281 -6.839844 L 5.273438 -5.988281 C 5.300781 -6.097656 5.328125 -6.230469 5.328125 -6.335938 C 5.328125 -6.839844 4.71875 -7.078125 4.292969 -7.078125 C 2.09375 -7.078125 -2.359375 -3.738281 -2.359375 -1.40625 C -2.359375 -0.636719 -1.777344 -0.0546875 -1.007812 -0.0546875 C -0.0546875 -0.0546875 0.742188 -0.664062 1.484375 -1.191406 Z M 4.957031 -6.121094 C 4.957031 -5.328125 2.835938 -2.96875 2.253906 -2.410156 C 1.644531 -1.828125 0.105469 -0.503906 -0.769531 -0.503906 C -1.113281 -0.503906 -1.351562 -0.6875 -1.351562 -1.035156 C -1.351562 -2.304688 3.023438 -6.652344 4.347656 -6.652344 C 4.664062 -6.652344 4.957031 -6.46875 4.957031 -6.121094 Z M 0.078125 1.058594 C -0.664062 2.4375 -3.605469 7.765625 -5.488281 7.765625 C -5.832031 7.765625 -6.015625 7.605469 -6.015625 7.261719 C -6.015625 6.203125 -4.503906 4.480469 -3.816406 3.789062 C -2.730469 2.675781 -1.378906 1.644531 0.078125 1.058594 Z M 0.078125 1.058594 "/></g></g></g><g fill="#57351a" fill-opacity="1"><g transform="translate(128.364879, 260.90818)"><g><path d="M 4.53125 -9.011719 C 4.53125 -9.304688 4.292969 -9.542969 4.003906 -9.542969 C 3.550781 -9.542969 3.128906 -9.144531 3.128906 -8.695312 C 3.128906 -8.402344 3.367188 -8.164062 3.65625 -8.164062 C 4.109375 -8.164062 4.53125 -8.5625 4.53125 -9.011719 Z M 0.6875 -5.75 C -0.0273438 -4.851562 -2.304688 -2.28125 -2.304688 -1.085938 C -2.304688 -0.449219 -1.75 0 -1.140625 0 C 0.292969 0 3.605469 -3.179688 4.558594 -4.082031 C 4.691406 -4.214844 5.089844 -4.503906 5.089844 -4.691406 C 5.089844 -4.746094 5.0625 -4.824219 4.984375 -4.824219 C 4.875 -4.824219 0.265625 -0.425781 -1.007812 -0.425781 C -1.246094 -0.425781 -1.378906 -0.554688 -1.378906 -0.796875 C -1.378906 -1.429688 0.238281 -3.367188 0.636719 -3.84375 L 3.179688 -6.996094 L 1.5625 -6.839844 Z M 0.6875 -5.75 "/></g></g></g><g fill="#57351a" fill-opacity="1"><g transform="translate(139.868176, 260.90818)"><g><path d="M -0.160156 -4.796875 C -0.925781 -3.894531 -2.28125 -2.410156 -2.28125 -1.140625 C -2.28125 -0.398438 -1.777344 0 -1.058594 0 C 0.664062 0 3.523438 -2.96875 4.636719 -4.109375 C 4.746094 -4.214844 5.140625 -4.636719 5.140625 -4.746094 C 5.140625 -4.824219 5.0625 -4.851562 5.007812 -4.851562 C 4.851562 -4.851562 4.453125 -4.347656 4.347656 -4.242188 C 3.578125 -3.5 0.398438 -0.425781 -0.769531 -0.425781 C -1.058594 -0.425781 -1.324219 -0.636719 -1.324219 -0.953125 C -1.324219 -1.644531 -0.554688 -2.4375 -0.160156 -2.941406 L 4.558594 -8.667969 L 6.230469 -8.667969 L 6.492188 -9.117188 L 4.875 -9.117188 L 7.714844 -12.511719 L 6.230469 -12.296875 L 3.550781 -9.117188 L 2.015625 -9.117188 L 1.722656 -8.667969 L 3.179688 -8.667969 Z M -0.160156 -4.796875 "/></g></g></g><g fill="#57351a" fill-opacity="1"><g transform="translate(151.371473, 260.90818)"><g><path d="M 5.460938 -6.015625 C 5.488281 -6.097656 5.511719 -6.203125 5.511719 -6.28125 C 5.511719 -6.757812 4.875 -6.890625 4.503906 -6.890625 C 2.226562 -6.890625 -2.148438 -3.921875 -2.148438 -1.457031 C -2.148438 -0.582031 -1.484375 0 -0.636719 0 C 0.371094 0 1.589844 -1.246094 2.28125 -1.882812 C 2.171875 -1.5625 2.039062 -1.167969 2.039062 -0.847656 C 2.039062 -0.265625 2.519531 0 3.046875 0 C 4.613281 0 7.261719 -2.410156 8.324219 -3.445312 C 8.507812 -3.605469 9.488281 -4.480469 9.488281 -4.691406 C 9.488281 -4.769531 9.460938 -4.824219 9.382812 -4.824219 C 9.25 -4.824219 4.851562 -0.449219 3.5 -0.449219 C 3.3125 -0.449219 3.074219 -0.554688 3.074219 -0.796875 C 3.074219 -1.113281 3.894531 -2.199219 4.109375 -2.464844 L 7.554688 -6.8125 L 6.042969 -6.730469 Z M 4.984375 -5.988281 C 4.984375 -4.796875 0.503906 -0.316406 -0.636719 -0.316406 C -0.902344 -0.316406 -1.140625 -0.609375 -1.140625 -0.875 C -1.140625 -1.855469 0.820312 -3.894531 1.457031 -4.53125 C 2.121094 -5.195312 3.417969 -6.519531 4.453125 -6.519531 C 4.746094 -6.519531 4.984375 -6.28125 4.984375 -5.988281 Z M 4.984375 -5.988281 "/></g></g></g><g fill="#57351a" fill-opacity="1"><g transform="translate(167.299628, 260.90818)"><g><path d="M 12.324219 -15.242188 C 12.324219 -15.742188 12.035156 -16.007812 11.53125 -16.007812 C 9.4375 -16.007812 4.984375 -11.050781 3.765625 -9.566406 C 2.675781 -8.242188 1.5625 -6.917969 0.503906 -5.566406 C -0.265625 -4.585938 -1.113281 -3.550781 -1.644531 -2.4375 C -1.828125 -2.039062 -1.960938 -1.617188 -1.960938 -1.191406 C -1.960938 -0.476562 -1.511719 0 -0.769531 0 C 1.113281 0 3.921875 -2.78125 5.089844 -4.054688 C 5.140625 -4.109375 5.671875 -4.664062 5.671875 -4.769531 C 5.671875 -4.851562 5.617188 -4.902344 5.539062 -4.902344 C 5.378906 -4.902344 5.195312 -4.664062 5.117188 -4.585938 C 4.636719 -4.082031 4.1875 -3.605469 3.683594 -3.128906 C 2.941406 -2.464844 0.53125 -0.425781 -0.503906 -0.425781 C -0.769531 -0.425781 -0.953125 -0.609375 -0.953125 -0.875 C -0.953125 -1.933594 2.492188 -6.359375 3.101562 -7.210938 C 5.460938 -8.269531 7.554688 -9.566406 9.515625 -11.265625 C 10.46875 -12.113281 12.324219 -13.835938 12.324219 -15.242188 Z M 11.925781 -15.109375 C 11.925781 -13.886719 9.9375 -12.164062 9.089844 -11.421875 C 7.234375 -9.753906 5.671875 -8.851562 3.472656 -7.738281 C 4.136719 -8.773438 4.875 -9.753906 5.644531 -10.707031 C 6.546875 -11.820312 9.9375 -15.636719 11.476562 -15.636719 C 11.792969 -15.636719 11.925781 -15.398438 11.925781 -15.109375 Z M 11.925781 -15.109375 "/></g></g></g><g fill="#57351a" fill-opacity="1"><g transform="translate(179.306345, 260.90818)"><g><path d="M 8.058594 -4.71875 C 8.058594 -4.796875 7.976562 -4.824219 7.925781 -4.824219 C 7.792969 -4.824219 6.707031 -3.765625 6.574219 -3.65625 C 5.195312 -2.4375 2.28125 -0.34375 0.449219 -0.34375 C 2.226562 -1.21875 4.160156 -2.675781 4.160156 -4.851562 C 4.160156 -5.832031 3.632812 -6.574219 3.128906 -7.367188 C 3.394531 -7.660156 3.683594 -8.003906 3.683594 -8.429688 C 3.683594 -8.640625 3.550781 -8.878906 3.3125 -8.878906 C 2.730469 -8.878906 2.597656 -8.003906 2.570312 -7.582031 C 1.855469 -6.601562 0.925781 -5.75 0.078125 -4.875 C 0.0273438 -4.824219 -0.210938 -4.613281 -0.210938 -4.503906 C -0.210938 -4.453125 -0.183594 -4.375 -0.105469 -4.375 C 0.0273438 -4.375 2.359375 -6.8125 2.675781 -7.15625 C 3.046875 -6.625 3.152344 -6.253906 3.152344 -5.617188 C 3.152344 -3.894531 1.085938 -0.371094 -0.847656 -0.371094 C -1.191406 -0.371094 -1.617188 -0.664062 -1.617188 -1.035156 C -1.617188 -1.800781 -0.292969 -1.167969 -0.292969 -1.988281 C -0.292969 -2.304688 -0.636719 -2.410156 -0.902344 -2.410156 C -1.589844 -2.410156 -2.015625 -1.777344 -2.015625 -1.140625 C -2.015625 -0.078125 -0.820312 0 -0.0273438 0 C 2.359375 0 4.613281 -1.695312 6.414062 -3.101562 C 6.652344 -3.285156 8.058594 -4.375 8.058594 -4.71875 Z M 8.058594 -4.71875 "/></g></g></g><g fill="#57351a" fill-opacity="1"><g transform="translate(193.75071, 260.90818)"><g/></g></g><g fill="#57351a" fill-opacity="1"><g transform="translate(207.214728, 260.90818)"><g><path d="M 12.429688 -15.53125 C 12.429688 -15.929688 12.113281 -16.300781 11.714844 -16.300781 C 11.105469 -16.300781 10.152344 -15.691406 9.699219 -15.347656 C 8.800781 -14.683594 7.925781 -14.019531 7.078125 -13.253906 C 5.089844 -11.449219 3.367188 -9.277344 1.667969 -7.183594 C 0.742188 -6.042969 -1.910156 -2.808594 -1.910156 -1.21875 C -1.910156 -0.476562 -1.511719 0 -0.742188 0 C 1.035156 0 2.890625 -2.226562 3.949219 -3.445312 C 4.214844 -3.339844 4.503906 -3.261719 4.796875 -3.261719 C 5.488281 -3.261719 6.335938 -3.84375 6.8125 -4.320312 C 6.863281 -4.375 7.210938 -4.71875 7.210938 -4.824219 C 7.210938 -4.902344 7.15625 -4.957031 7.078125 -4.957031 C 6.890625 -4.957031 5.882812 -3.632812 4.875 -3.632812 C 4.664062 -3.632812 4.453125 -3.683594 4.242188 -3.765625 C 4.746094 -4.425781 5.539062 -5.40625 5.539062 -6.28125 C 5.539062 -6.652344 5.355469 -7.050781 4.929688 -7.050781 C 4.003906 -7.050781 3.179688 -5.832031 3.179688 -4.984375 C 3.179688 -4.453125 3.339844 -4.109375 3.683594 -3.710938 C 2.941406 -2.808594 0.875 -0.476562 -0.398438 -0.476562 C -0.714844 -0.476562 -0.875 -0.636719 -0.875 -0.953125 C -0.875 -1.933594 2.652344 -6.601562 3.285156 -7.421875 C 5.488281 -8.242188 7.714844 -9.460938 9.410156 -11.078125 C 10.335938 -11.980469 12.429688 -14.152344 12.429688 -15.53125 Z M 12.058594 -15.480469 C 12.058594 -14.3125 9.753906 -11.980469 8.957031 -11.238281 C 7.261719 -9.675781 5.726562 -8.800781 3.605469 -7.898438 C 4.292969 -8.773438 4.957031 -9.621094 5.617188 -10.496094 C 6.230469 -11.316406 6.839844 -12.164062 7.582031 -12.90625 C 8.191406 -13.515625 10.734375 -15.957031 11.636719 -15.957031 C 11.925781 -15.957031 12.058594 -15.742188 12.058594 -15.480469 Z M 5.140625 -6.175781 C 5.140625 -5.539062 4.320312 -4.480469 3.949219 -4.003906 C 3.683594 -4.265625 3.578125 -4.503906 3.578125 -4.902344 C 3.578125 -5.511719 4.136719 -6.601562 4.824219 -6.601562 C 5.0625 -6.601562 5.140625 -6.386719 5.140625 -6.175781 Z M 5.140625 -6.175781 "/></g></g></g><g fill="#57351a" fill-opacity="1"><g transform="translate(220.678747, 260.90818)"><g><path d="M 2.28125 0.34375 C 0.371094 0.953125 -1.988281 2.304688 -3.550781 3.523438 C -4.398438 4.1875 -5.964844 5.832031 -5.964844 6.996094 C -5.964844 7.527344 -5.511719 7.925781 -4.984375 7.925781 C -2.652344 7.925781 2.28125 1.882812 3.632812 0.210938 C 6.546875 -0.902344 8.109375 -2.015625 10.203125 -4.292969 C 10.285156 -4.375 10.550781 -4.636719 10.550781 -4.746094 C 10.550781 -4.824219 10.496094 -4.875 10.417969 -4.875 C 10.308594 -4.875 10.046875 -4.53125 9.992188 -4.480469 C 8.136719 -2.410156 6.652344 -1.378906 4.054688 -0.371094 L 9.328125 -7.078125 L 7.871094 -6.917969 C 6.679688 -5.40625 5.433594 -3.894531 4.003906 -2.597656 C 3.550781 -2.171875 1.910156 -0.714844 1.246094 -0.714844 C 1.007812 -0.714844 0.875 -0.875 0.875 -1.113281 C 0.875 -2.171875 4.109375 -4.71875 4.109375 -6.308594 C 4.109375 -6.785156 3.605469 -7.15625 3.152344 -7.15625 C 2.09375 -7.15625 1.058594 -5.9375 0.398438 -5.246094 C 0.316406 -5.167969 -0.160156 -4.691406 -0.160156 -4.558594 C -0.160156 -4.503906 -0.105469 -4.453125 -0.0546875 -4.453125 C 0.183594 -4.453125 1.910156 -6.625 2.703125 -6.625 C 2.890625 -6.625 3.046875 -6.546875 3.046875 -6.335938 C 3.046875 -5.246094 -0.132812 -2.808594 -0.132812 -1.140625 C -0.132812 -0.554688 0.265625 -0.238281 0.820312 -0.238281 C 1.800781 -0.238281 2.996094 -1.296875 3.765625 -1.855469 Z M 1.855469 0.925781 C 0.847656 2.359375 -3.046875 7.582031 -4.957031 7.582031 C -5.328125 7.582031 -5.59375 7.316406 -5.59375 6.945312 C -5.59375 5.832031 -3.523438 4.027344 -2.757812 3.394531 C -1.667969 2.492188 0.53125 1.429688 1.855469 0.925781 Z M 1.855469 0.925781 "/></g></g></g><g fill="#57351a" fill-opacity="1"><g transform="translate(237.587254, 260.90818)"><g/></g></g><g fill="#57351a" fill-opacity="1"><g transform="translate(251.051273, 260.90818)"><g><path d="M 3.710938 0 C 5.488281 -2.332031 6.492188 -3.738281 8.640625 -5.617188 C 8.984375 -5.9375 9.675781 -6.546875 10.179688 -6.546875 C 10.390625 -6.546875 10.574219 -6.359375 10.574219 -6.148438 C 10.574219 -5.273438 7.316406 -2.28125 7.316406 -0.953125 C 7.316406 -0.265625 7.871094 0 8.480469 0 C 9.992188 0 13.066406 -3.285156 14.074219 -4.292969 C 14.152344 -4.375 14.523438 -4.691406 14.523438 -4.796875 C 14.523438 -4.875 14.445312 -4.929688 14.367188 -4.929688 C 14.285156 -4.929688 9.886719 -0.476562 8.746094 -0.476562 C 8.5625 -0.476562 8.402344 -0.636719 8.402344 -0.820312 C 8.402344 -1.21875 9.066406 -2.09375 9.277344 -2.386719 L 11 -4.769531 C 11.292969 -5.195312 11.664062 -5.644531 11.664062 -6.175781 C 11.664062 -6.785156 11.160156 -7.078125 10.601562 -7.078125 C 9.566406 -7.078125 8.109375 -5.671875 7.421875 -5.007812 C 7.605469 -5.328125 7.820312 -5.804688 7.820312 -6.175781 C 7.820312 -6.730469 7.449219 -7.050781 6.917969 -7.050781 C 5.964844 -7.050781 4.214844 -5.617188 3.550781 -5.007812 C 3.710938 -5.273438 3.871094 -5.859375 3.871094 -6.175781 C 3.871094 -6.679688 3.550781 -7.050781 3.046875 -7.050781 C 2.039062 -7.050781 0.742188 -5.460938 0 -4.824219 C -0.105469 -4.746094 -0.210938 -4.636719 -0.210938 -4.503906 C -0.210938 -4.453125 -0.160156 -4.398438 -0.105469 -4.398438 C 0.316406 -4.398438 1.828125 -6.601562 2.757812 -6.601562 C 2.941406 -6.601562 3.128906 -6.441406 3.128906 -6.253906 C 3.128906 -5.859375 2.386719 -4.851562 2.148438 -4.558594 L -1.351562 -0.078125 L 0.0546875 -0.0273438 C 0.636719 -0.742188 1.140625 -1.539062 1.695312 -2.28125 C 2.730469 -3.65625 3.921875 -4.957031 5.328125 -5.964844 C 5.617188 -6.175781 6.097656 -6.46875 6.46875 -6.46875 C 6.707031 -6.46875 6.863281 -6.335938 6.863281 -6.097656 C 6.863281 -5.882812 6.679688 -5.566406 6.546875 -5.40625 C 5.167969 -3.578125 3.710938 -1.828125 2.332031 0 Z M 3.710938 0 "/></g></g></g><g fill="#57351a" fill-opacity="1"><g transform="translate(271.881212, 260.90818)"><g><path d="M 0.183594 -5.273438 C -0.449219 -4.480469 -2.542969 -2.171875 -2.542969 -1.085938 C -2.542969 -0.503906 -2.066406 -0.0273438 -1.484375 -0.0273438 C -0.105469 -0.0273438 1.191406 -1.589844 2.09375 -2.492188 C 1.855469 -2.09375 1.484375 -1.351562 1.484375 -0.875 C 1.484375 -0.34375 1.722656 0 2.28125 0 C 3.949219 0 6.679688 -3.074219 7.714844 -4.1875 C 7.84375 -4.320312 8.109375 -4.558594 8.109375 -4.769531 C 8.109375 -4.824219 8.109375 -4.875 8.03125 -4.875 C 7.84375 -4.875 7.738281 -4.71875 7.605469 -4.585938 C 6.863281 -3.789062 3.65625 -0.425781 2.570312 -0.425781 C 2.386719 -0.425781 2.304688 -0.582031 2.304688 -0.742188 C 2.304688 -1.484375 6.917969 -6.839844 7.050781 -7.023438 L 5.511719 -6.945312 C 4.082031 -5.089844 2.492188 -3.234375 0.714844 -1.722656 C 0.34375 -1.429688 -0.714844 -0.425781 -1.191406 -0.425781 C -1.457031 -0.425781 -1.589844 -0.582031 -1.589844 -0.847656 C -1.589844 -1.589844 2.625 -6.492188 3.101562 -7.050781 L 1.5625 -6.945312 Z M 0.183594 -5.273438 "/></g></g></g><g fill="#57351a" fill-opacity="1"><g transform="translate(286.325577, 260.90818)"><g><path d="M -1.5625 -0.210938 L -0.078125 -0.292969 C 1.40625 -1.882812 2.597656 -3.789062 4.292969 -5.195312 C 4.71875 -5.539062 5.964844 -6.652344 6.574219 -6.652344 C 6.730469 -6.652344 6.863281 -6.519531 6.863281 -6.359375 C 6.863281 -5.511719 3.550781 -2.570312 3.550781 -1.140625 C 3.550781 -0.582031 4.054688 -0.078125 4.613281 -0.078125 C 6.46875 -0.078125 8.957031 -2.996094 10.179688 -4.265625 C 10.285156 -4.375 10.574219 -4.636719 10.574219 -4.769531 C 10.574219 -4.824219 10.550781 -4.929688 10.46875 -4.929688 C 10.230469 -4.929688 6.546875 -0.582031 5.0625 -0.582031 C 4.796875 -0.582031 4.691406 -0.742188 4.691406 -0.980469 C 4.691406 -2.226562 7.871094 -4.746094 7.871094 -6.230469 C 7.871094 -6.730469 7.472656 -7.078125 6.996094 -7.078125 C 5.804688 -7.078125 4.503906 -5.859375 3.632812 -5.140625 C 3.789062 -5.511719 3.976562 -5.882812 3.976562 -6.28125 C 3.976562 -6.8125 3.632812 -7.210938 3.101562 -7.210938 C 2.28125 -7.210938 2.015625 -6.863281 1.457031 -6.308594 C 1.113281 -5.964844 0.742188 -5.59375 0.398438 -5.246094 C 0.316406 -5.167969 -0.183594 -4.691406 -0.183594 -4.585938 C -0.183594 -4.53125 -0.160156 -4.453125 -0.078125 -4.453125 C 0.265625 -4.453125 2.015625 -6.707031 2.757812 -6.707031 C 2.96875 -6.707031 3.074219 -6.519531 3.074219 -6.335938 C 3.074219 -5.777344 1.695312 -4.1875 1.378906 -3.789062 Z M -1.5625 -0.210938 "/></g></g></g><g fill="#57351a" fill-opacity="1"><g transform="translate(303.234085, 260.90818)"><g><path d="M 4.53125 -9.011719 C 4.53125 -9.304688 4.292969 -9.542969 4.003906 -9.542969 C 3.550781 -9.542969 3.128906 -9.144531 3.128906 -8.695312 C 3.128906 -8.402344 3.367188 -8.164062 3.65625 -8.164062 C 4.109375 -8.164062 4.53125 -8.5625 4.53125 -9.011719 Z M 0.6875 -5.75 C -0.0273438 -4.851562 -2.304688 -2.28125 -2.304688 -1.085938 C -2.304688 -0.449219 -1.75 0 -1.140625 0 C 0.292969 0 3.605469 -3.179688 4.558594 -4.082031 C 4.691406 -4.214844 5.089844 -4.503906 5.089844 -4.691406 C 5.089844 -4.746094 5.0625 -4.824219 4.984375 -4.824219 C 4.875 -4.824219 0.265625 -0.425781 -1.007812 -0.425781 C -1.246094 -0.425781 -1.378906 -0.554688 -1.378906 -0.796875 C -1.378906 -1.429688 0.238281 -3.367188 0.636719 -3.84375 L 3.179688 -6.996094 L 1.5625 -6.839844 Z M 0.6875 -5.75 "/></g></g></g><path stroke-linecap="butt" transform="matrix(0.000000001309, -0.75, 0.75, 0.000000001309, 161.743352, 222.990425)" fill="none" stroke-linejoin="miter" d="M -0.00235059 0.498447 L 145.575784 0.498447 " stroke="#000000" stroke-width="1" stroke-opacity="1" stroke-miterlimit="4"/></svg>