<svg xmlns="http://www.w3.org/2000/svg" xmlns:xlink="http://www.w3.org/1999/xlink" width="500" zoomAndPan="magnify" viewBox="0 0 375 374.999991" height="500" preserveAspectRatio="xMidYMid meet" version="1.0"><defs><g/><clipPath id="26f54bed8b"><path d="M 44.109375 174.890625 L 330.890625 174.890625 L 330.890625 208.289062 L 44.109375 208.289062 Z M 44.109375 174.890625 " clip-rule="nonzero"/></clipPath></defs><path stroke-linecap="butt" transform="matrix(0.00181951, -0.749998, 0.749998, 0.00181951, 186.144323, 288.268311)" fill="none" stroke-linejoin="miter" d="M -0.000413756 0.50028 L 268.724343 0.499391 " stroke="#000000" stroke-width="1" stroke-opacity="1" stroke-miterlimit="4"/><g fill="#57351a" fill-opacity="1"><g transform="translate(44.559521, 248.166756)"><g><path d="M 3.601562 0 L 13.210938 0 C 25.820312 0 36.148438 2.402344 46.714844 2.402344 C 83.703125 2.402344 101.238281 -27.140625 101.238281 -60.046875 C 101.238281 -92.953125 83.703125 -122.496094 46.714844 -122.496094 C 36.148438 -122.496094 25.820312 -120.09375 13.210938 -120.09375 L 3.601562 -120.09375 L 3.601562 -118.890625 C 13.929688 -118.890625 14.652344 -110.363281 14.652344 -86.707031 L 14.652344 -33.386719 C 14.652344 -9.726562 13.929688 -1.199219 3.601562 -1.199219 Z M 24.859375 -117.449219 C 31.824219 -119.613281 38.789062 -120.8125 46.597656 -120.8125 C 76.257812 -120.8125 90.910156 -92.832031 90.910156 -60.046875 C 90.910156 -27.261719 76.257812 0.71875 46.597656 0.71875 C 38.789062 0.71875 31.824219 -0.480469 24.859375 -2.640625 Z M 24.859375 -117.449219 "/></g></g></g><g fill="#57351a" fill-opacity="1"><g transform="translate(153.241627, 248.166756)"><g/></g></g><g fill="#57351a" fill-opacity="1"><g transform="translate(195.513571, 248.166756)"><g><path d="M 3.601562 -120.09375 L 3.601562 -118.890625 C 13.929688 -118.890625 14.652344 -110.363281 14.652344 -86.707031 L 14.652344 -33.386719 C 14.652344 -9.726562 13.929688 -1.199219 3.601562 -1.199219 L 3.601562 0 L 36.027344 0 L 36.027344 -1.199219 C 25.699219 -1.199219 15.851562 -9.847656 15.851562 -44.792969 L 15.851562 -60.046875 L 15.972656 -111.566406 C 34.226562 -72.414062 45.035156 -49.117188 63.890625 -8.765625 L 64.96875 -8.765625 C 79.742188 -48.398438 91.871094 -81.421875 104.839844 -116.128906 L 104.839844 -33.386719 C 104.839844 -9.726562 104.121094 -1.199219 93.792969 -1.199219 L 93.792969 0 L 126.21875 0 L 126.21875 -1.199219 C 115.890625 -1.199219 115.167969 -9.726562 115.167969 -33.386719 L 115.167969 -86.707031 C 115.167969 -110.363281 115.890625 -118.890625 126.21875 -118.890625 L 126.21875 -120.09375 L 105.082031 -120.09375 L 69.054688 -23.296875 L 22.9375 -120.09375 Z M 3.601562 -120.09375 "/></g></g></g><g fill="#57351a" fill-opacity="1"><g transform="translate(325.571835, 248.166756)"><g><path d="M 7.207031 -8.046875 C 7.207031 -3.601562 10.808594 0 15.25 0 C 19.695312 0 23.296875 -3.601562 23.296875 -8.046875 C 23.296875 -12.488281 19.695312 -16.09375 15.25 -16.09375 C 10.808594 -16.09375 7.207031 -12.488281 7.207031 -8.046875 Z M 7.207031 -8.046875 "/></g></g></g><g clip-path="url(#26f54bed8b)"><path fill="#ffffff" d="M 44.109375 174.890625 L 330.890625 174.890625 L 330.890625 208.289062 L 44.109375 208.289062 Z M 44.109375 174.890625 " fill-opacity="1" fill-rule="nonzero"/></g><g fill="#57351a" fill-opacity="1"><g transform="translate(80.751975, 195.254677)"><g><path d="M 4.980469 0 C 8.597656 0 11.609375 -2.953125 11.609375 -6.664062 C 11.609375 -10.398438 8.597656 -13.371094 4.980469 -13.371094 L 0.664062 -13.371094 L 0.664062 0 Z M 2.140625 -13.238281 L 4.980469 -13.238281 C 7.878906 -13.238281 10.207031 -10.28125 10.207031 -6.664062 C 10.207031 -3.050781 7.878906 -0.152344 4.980469 -0.152344 L 2.140625 -0.152344 Z M 2.140625 -13.238281 "/></g></g></g><g fill="#57351a" fill-opacity="1"><g transform="translate(97.732274, 195.254677)"><g><path d="M 0.664062 0 L 2.082031 0 L 2.082031 -13.371094 L 0.664062 -13.371094 Z M 0.664062 0 "/></g></g></g><g fill="#57351a" fill-opacity="1"><g transform="translate(105.193368, 195.254677)"><g><path d="M 11.097656 -1.421875 C 10.566406 -0.910156 9.921875 -0.4375 9.070312 -0.246094 C 5.910156 0.625 3.144531 -2.367188 2.386719 -5.265625 C 1.648438 -8.144531 2.5 -12.121094 5.71875 -13.011719 C 9.734375 -14.128906 11.761719 -9.847656 11.855469 -9.621094 L 11.855469 -11.589844 C 11.855469 -11.589844 9.867188 -14.296875 5.699219 -13.140625 C 2.082031 -12.195312 -0.0585938 -8.484375 0.910156 -4.886719 C 1.894531 -1.289062 5.585938 0.890625 9.109375 -0.152344 C 10.527344 -0.511719 11.722656 -1.289062 12.535156 -2.328125 L 12.535156 -6.289062 L 5.300781 -6.289062 L 5.300781 -4.828125 C 6.648438 -6.058594 8.785156 -6.136719 11.097656 -6.136719 Z M 11.097656 -1.421875 "/></g></g></g><g fill="#57351a" fill-opacity="1"><g transform="translate(123.100983, 195.254677)"><g><path d="M 0.664062 0 L 2.082031 0 L 2.082031 -13.371094 L 0.664062 -13.371094 Z M 0.664062 0 "/></g></g></g><g fill="#57351a" fill-opacity="1"><g transform="translate(130.562078, 195.254677)"><g><path d="M 5.167969 0 L 6.628906 0 L 6.628906 -13.238281 C 8.636719 -13.21875 9.847656 -13.105469 11.136719 -11.910156 L 11.136719 -13.390625 L 0.664062 -13.390625 L 0.664062 -11.910156 C 1.914062 -13.105469 3.144531 -13.21875 5.167969 -13.238281 Z M 5.167969 0 "/></g></g></g><g fill="#57351a" fill-opacity="1"><g transform="translate(147.069263, 195.254677)"><g><path d="M 9.867188 0 L 11.457031 0 L 5.792969 -13.371094 L 5.664062 -13.371094 C 4.222656 -10.925781 2.519531 -7.480469 1.515625 -4.773438 C 1.058594 -3.558594 0.796875 -2.5 0.699219 -1.667969 C 0.605469 -0.8125 0.8125 -0.246094 1.324219 -0.0195312 C 1.457031 0.09375 1.515625 0.09375 1.628906 0.113281 C 2.480469 0.152344 2.800781 -0.550781 3.164062 -1.496094 C 3.769531 -2.878906 4.507812 -4.828125 7.726562 -5.132812 Z M 7.667969 -5.265625 C 4.394531 -4.941406 3.636719 -2.953125 3.011719 -1.535156 C 2.707031 -0.664062 2.40625 0 1.648438 -0.0585938 C 1.554688 -0.113281 1.496094 -0.113281 1.382812 -0.152344 C 0.929688 -0.304688 0.796875 -0.890625 0.832031 -1.667969 C 0.929688 -2.480469 1.191406 -3.523438 1.648438 -4.734375 C 2.441406 -6.929688 3.730469 -9.507812 4.886719 -11.742188 Z M 7.667969 -5.265625 "/></g></g></g><g fill="#57351a" fill-opacity="1"><g transform="translate(163.898163, 195.254677)"><g><path d="M 8.671875 -2.800781 C 7.972656 -0.890625 7.007812 -0.152344 5.378906 -0.152344 L 2.179688 -0.152344 L 2.179688 -13.371094 L 0.664062 -13.371094 L 0.664062 0 L 8.21875 0 Z M 8.671875 -2.800781 "/></g></g></g><g fill="#57351a" fill-opacity="1"><g transform="translate(177.94511, 195.254677)"><g><path d="M 1.628906 -10.152344 C 1.628906 -7.992188 3.617188 -6.914062 5.644531 -6.003906 C 10.054688 -3.976562 10.398438 -2.027344 9.148438 -0.984375 C 6.761719 1.023438 2.519531 -0.625 0.664062 -5.320312 L 0.664062 -2.6875 C 2.800781 0.0585938 7.140625 0.8125 9.296875 -0.832031 C 9.980469 -1.382812 10.398438 -2.179688 10.398438 -3.199219 C 10.398438 -5.433594 8.425781 -6.515625 6.363281 -7.40625 C 1.742188 -9.5625 1.589844 -11.644531 3.066406 -12.613281 C 4.808594 -13.824219 8.257812 -13.539062 10.167969 -9.65625 L 10.167969 -11.644531 C 8.539062 -14.277344 1.628906 -14.375 1.628906 -10.152344 Z M 1.628906 -10.152344 "/></g></g></g><g fill="#57351a" fill-opacity="1"><g transform="translate(193.714222, 195.254677)"><g><path d="M 1.609375 -1.855469 C 1.097656 -1.855469 0.664062 -1.402344 0.664062 -0.945312 C 0.664062 -0.417969 1.097656 0 1.609375 0 C 2.179688 0 2.574219 -0.417969 2.574219 -0.945312 C 2.574219 -1.402344 2.179688 -1.855469 1.609375 -1.855469 Z M 1.609375 -1.855469 "/></g></g></g><g fill="#57351a" fill-opacity="1"><g transform="translate(201.667368, 195.254677)"><g><path d="M 6.269531 -7.367188 C 7.800781 -7.6875 9.050781 -8.636719 9.050781 -10.339844 C 9.050781 -12.519531 6.78125 -13.371094 3.9375 -13.371094 L 0.664062 -13.371094 L 0.664062 0 L 5.152344 0 C 8.066406 -0.0195312 10.339844 -0.664062 10.339844 -3.710938 C 10.339844 -6.402344 8.65625 -7.195312 6.269531 -7.367188 Z M 8.863281 -3.710938 C 8.863281 -0.304688 6.703125 -0.152344 5 -0.152344 L 2.160156 -0.152344 L 2.160156 -10.546875 C 2.308594 -9.808594 2.539062 -9.164062 2.878906 -8.65625 C 3.425781 -7.785156 4.261719 -7.273438 5.152344 -7.273438 C 6.796875 -7.273438 8.863281 -7.101562 8.863281 -3.710938 Z M 7.574219 -10.339844 C 7.574219 -8.277344 6.417969 -7.421875 5.152344 -7.421875 C 4.296875 -7.421875 3.558594 -7.898438 3.03125 -8.75 C 2.480469 -9.542969 2.160156 -10.679688 2.160156 -11.988281 L 2.160156 -13.238281 L 3.9375 -13.238281 C 5.757812 -13.238281 7.574219 -12.5 7.574219 -10.339844 Z M 7.574219 -10.339844 "/></g></g></g><g fill="#57351a" fill-opacity="1"><g transform="translate(217.379708, 195.254677)"><g><path d="M 10.035156 -12.308594 C 10.167969 -12.648438 10.890625 -13.351562 11.382812 -13.390625 L 9.242188 -13.390625 C 9.601562 -13.351562 10.207031 -12.992188 9.808594 -12.214844 L 6.683594 -6.15625 L 5.285156 -8.484375 L 2.367188 -13.390625 L 0.664062 -13.390625 L 5.285156 -5.625 L 5.285156 0 L 6.78125 0 L 6.78125 -6.023438 Z M 10.035156 -12.308594 "/></g></g></g><g fill="#57351a" fill-opacity="1"><g transform="translate(234.132908, 195.254677)"><g><path d="M 1.609375 -1.855469 C 1.097656 -1.855469 0.664062 -1.402344 0.664062 -0.945312 C 0.664062 -0.417969 1.097656 0 1.609375 0 C 2.179688 0 2.574219 -0.417969 2.574219 -0.945312 C 2.574219 -1.402344 2.179688 -1.855469 1.609375 -1.855469 Z M 1.609375 -1.855469 "/></g></g></g><g fill="#57351a" fill-opacity="1"><g transform="translate(242.086062, 195.254677)"><g><path d="M 12.140625 -13.371094 C 8.125 -13.371094 6.914062 -7.746094 6.550781 -3.390625 L 2.234375 -13.371094 L 0.664062 -13.371094 L 0.664062 0 L 0.777344 0 L 0.777344 -13.027344 L 1.308594 -11.777344 L 6.417969 0 L 6.609375 0 C 6.609375 -3.445312 6.914062 -11.324219 10.699219 -12.914062 L 10.699219 0 L 12.140625 0 Z M 12.140625 -13.371094 "/></g></g></g><g fill="#57351a" fill-opacity="1"><g transform="translate(259.596251, 195.254677)"><g><path d="M 2.160156 -13.390625 L 0.664062 -13.390625 L 0.664062 -4.847656 C 0.664062 -1.097656 4.414062 0.929688 7.800781 -0.285156 C 9.789062 -1.023438 10.832031 -2.746094 10.832031 -4.847656 L 10.832031 -13.390625 L 9.355469 -13.390625 C 10.605469 -11.761719 10.660156 -7.6875 10.660156 -4.847656 C 10.660156 -2.671875 9.582031 -1.097656 7.765625 -0.4375 C 4.714844 0.699219 2.160156 -1.703125 2.160156 -4.847656 Z M 2.160156 -13.390625 "/></g></g></g><g fill="#57351a" fill-opacity="1"><g transform="translate(275.800634, 195.254677)"><g><path d="M 0.664062 -13.371094 L 0.664062 0 L 2.082031 0 L 2.082031 -13.238281 C 4.128906 -13.238281 5.644531 -11.703125 6.78125 -9.542969 C 8.179688 -6.796875 8.882812 -3.011719 8.882812 0 L 10.300781 0 L 10.300781 -13.371094 L 8.882812 -13.371094 L 8.882812 -2.5 C 8.597656 -4.941406 7.972656 -7.554688 6.855469 -9.621094 C 5.757812 -11.816406 4.148438 -13.371094 2.082031 -13.371094 Z M 0.664062 -13.371094 "/></g></g></g><g fill="#57351a" fill-opacity="1"><g transform="translate(291.475116, 195.254677)"><g><path d="M 0.664062 0 L 2.082031 0 L 2.082031 -13.371094 L 0.664062 -13.371094 Z M 0.664062 0 "/></g></g></g></svg>